<svg height="1024" width="1024" xmlns="http://www.w3.org/2000/svg" version="1.1">
  <rect width="1024" height="1024" fill="#{{backgroundColor}}" />
  <g transform="rotate({{rotation}},512,512)" fill="#{{outlineColor}}">
    <path
      d="M17.7016+644.976C-55.7392+371.983+106.03+91.1424+379.024+17.7016C652.017-55.7392+932.858+106.03+1006.3+379.024C1079.74+652.017+917.97+932.858+644.976+1006.3C371.983+1079.74+91.1424+917.97+17.7016+644.976Z"
      opacity="1" />
    <path
      d="M260.178+308.003L260.179+308.434C148.853+312.737+60.8326+404.254+60.8661+515.662C60.9795+630.164+153.894+722.893+268.396+722.778C329.162+722.66+386.818+695.889+426.119+649.543L592.817+649.376C632.212+695.646+689.924+722.302+750.693+722.296C865.192+722.179+957.918+629.265+957.802+514.766C957.695+408.777+877.662+319.936+772.259+308.803C604.585+306.285+430.204+307.834+260.178+308.003Z"
      opacity="1" fill="#{{vizorColor}}" />
    <path
      d="M254.044+429.522C243.723+429.532+235.425+437.853+235.436+448.173L235.497+509.378L315.335+509.298L315.274+448.094C315.263+437.773+306.949+429.469+296.628+429.479L254.044+429.522Z"
      opacity="1" />
    <path
      d="M643.455+539.751C637.341+517.026+650.808+493.648+673.532+487.535C696.257+481.421+719.635+494.887+725.748+517.612C731.862+540.337+718.396+563.715+695.671+569.828C672.946+575.942+649.568+562.475+643.455+539.751Z"
      opacity="1" />
    <path
      d="M719.994+462.487C713.881+439.763+727.347+416.385+750.072+410.271C772.797+404.158+796.175+417.624+802.288+440.349C808.401+463.074+794.935+486.452+772.21+492.565C749.486+498.678+726.108+485.212+719.994+462.487Z"
      opacity="1" />
    <path
      d="M511.513+50.1238C339.921+50.4287+182.72+146.083+103.589+298.341C151.717+260.514+211.081+239.807+272.295+239.496C272.351+239.496+272.407+239.495+272.463+239.495L747.339+239.021L752.826+239.016L752.826+239.084C815.02+240.396+874.936+262.735+922.809+302.46C844.254+147.527+685.223+49.9584+511.513+50.1238Z"
      opacity="1" fill="#{{topColor}}" />
    <path
      d="M463.704+712.682C412.491+762.195+344.079+789.928+272.845+790.052C214.301+789.759+157.376+770.81+110.337+735.957C191.863+881.447+345.659+971.51+512.434+971.423C680.332+971.148+834.784+879.545+915.541+732.344C867.49+769.373+808.553+789.494+747.889+789.577C676.657+789.594+608.192+761.998+556.882+712.589L463.704+712.682Z"
      opacity="1" fill="#{{bottomColor}}" />
    <g fill="#{{eyeColor}}">
      <path
        d="M174.286+509.439C163.965+509.45+155.667+517.77+155.678+528.091L155.72+570.669C155.731+580.989+164.045+589.294+174.366+589.283L235.577+589.222L235.638+650.427C235.648+660.748+243.963+669.052+254.283+669.041L296.867+668.999C307.188+668.989+315.486+660.668+315.476+650.347L315.414+589.142L376.626+589.081C386.946+589.071+395.244+580.75+395.234+570.43L395.191+527.852C395.181+517.531+386.866+509.227+376.546+509.237L375.216+509.239L315.335+509.298L235.497+509.378L183.599+509.43L174.286+509.439Z"
        opacity="1" />
      <path
        d="M719.541+615.786C713.425+593.051+726.897+569.663+749.631+563.547C772.366+557.431+795.754+570.903+801.87+593.638C807.986+616.372+794.514+639.76+771.78+645.876C749.045+651.993+725.657+638.521+719.541+615.786Z"
        opacity="1" />
      <path
        d="M796.14+538.693C790.026+515.968+803.493+492.59+826.217+486.477C848.942+480.363+872.32+493.829+878.433+516.554C884.547+539.279+871.081+562.657+848.356+568.77C825.631+574.884+802.253+561.417+796.14+538.693Z"
        opacity="1" />
    </g>
  </g>
</svg>