<svg width="512" height="512" viewBox="0 0 135.467 135.467" xmlns="http://www.w3.org/2000/svg">
  <g transform="scale(1.58646) rotate(15 125.6 -28.627)">
    <circle cx="63.979" cy="61.722" r="42.695" fill="#feffff" />
    <path
      d="M43.15 44.915v.035c-9.216.347-16.51 7.916-16.516 17.14 0 9.478 7.684 17.163 17.163 17.163a17.163 17.163 0 0013.063-6.05h13.8a17.163 17.163 0 0013.064 6.05c9.479 0 17.163-7.685 17.163-17.164 0-8.774-6.618-16.136-15.343-17.066-13.881-.222-28.318-.108-42.393-.108z"
      fill="#1a1a1a" />
    <path
      d="M63.979 23.587a38.135 38.135 0 00-33.79 20.515 22.789 22.789 0 0113.97-4.858 22.789 22.789 0 01.015 0H83.94v.006a22.789 22.789 0 0114.066 5.26A38.135 38.135 0 0063.98 23.587zm-4.013 54.846a22.789 22.789 0 01-15.806 6.39 22.789 22.789 0 01-13.45-4.493A38.135 38.135 0 0063.98 99.857 38.135 38.135 0 0097.37 80.098a22.789 22.789 0 01-13.884 4.724 22.789 22.789 0 01-15.806-6.39z"
      fill="#4d4d4d" />
    <circle cx="84.215" cy="56.826" r="3.544" fill="#fff" />
    <circle cx="91.192" cy="63.581" r="3.544" fill="#0071bc" />
    <circle cx="77.791" cy="63.581" r="3.544" fill="#fff" />
    <circle cx="84.215" cy="69.783" r="3.544" fill="#0071bc" />
    <path
      d="M34.37 59.926c-.855 0-1.543.688-1.543 1.543v3.524c0 .855.688 1.543 1.542 1.543h5.068v5.067c0 .854.688 1.542 1.542 1.542h3.525c.855 0 1.542-.688 1.542-1.542v-5.067h5.068c.854 0 1.542-.688 1.542-1.543V61.47c0-.855-.688-1.543-1.542-1.543H35.14z"
      fill="#0071bc" />
    <path d="M40.979 53.317c-.854 0-1.542.688-1.542 1.542v5.067h6.61V54.86c0-.854-.688-1.542-1.543-1.542z"
      fill="#fff" />
  </g>
</svg>